<?xml version="1.0" encoding="UTF-8"?>
<svg xmlns="http://www.w3.org/2000/svg" xmlns:xlink="http://www.w3.org/1999/xlink" width="66" height="66" viewBox="0 0 66 66">
<path fill-rule="evenodd" fill="rgb(18.82353%, 18.82353%, 18.82353%)" fill-opacity="1" stroke-width="0.1" stroke-linecap="butt" stroke-linejoin="miter" stroke="rgb(18.82353%, 18.82353%, 18.82353%)" stroke-opacity="1" stroke-miterlimit="10" d="M 9.6 4 C 9.6 4.883594 8.883594 5.6 8 5.6 C 7.116406 5.6 6.4 4.883594 6.4 4 C 6.4 3.116406 7.116406 2.4 8 2.4 C 8.883594 2.4 9.6 3.116406 9.6 4 " transform="matrix(20, 0, 0, 20, -127, -47)"/>
<path fill="none" stroke-width="0.4" stroke-linecap="butt" stroke-linejoin="miter" stroke="rgb(100%, 100%, 100%)" stroke-opacity="1" stroke-miterlimit="10" d="M 7.2 3 L 7.2 5 " transform="matrix(20, 0, 0, 20, -127, -47)"/>
<path fill="none" stroke-width="0.4" stroke-linecap="butt" stroke-linejoin="miter" stroke="rgb(100%, 100%, 100%)" stroke-opacity="1" stroke-miterlimit="10" d="M 8.8 3 L 8.8 5 " transform="matrix(20, 0, 0, 20, -127, -47)"/>
<path fill="none" stroke-width="0.4" stroke-linecap="butt" stroke-linejoin="miter" stroke="rgb(100%, 100%, 100%)" stroke-opacity="1" stroke-miterlimit="10" d="M 8.2 3.2 L 7 3.2 " transform="matrix(20, 0, 0, 20, -127, -47)"/>
<path fill="none" stroke-width="0.4" stroke-linecap="butt" stroke-linejoin="miter" stroke="rgb(100%, 100%, 100%)" stroke-opacity="1" stroke-miterlimit="10" d="M 8.2 4 L 7.2 4 " transform="matrix(20, 0, 0, 20, -127, -47)"/>
<path fill="none" stroke-width="0.4" stroke-linecap="butt" stroke-linejoin="miter" stroke="rgb(100%, 100%, 100%)" stroke-opacity="1" stroke-miterlimit="10" d="M 8.8 4.8 L 8 4.8 " transform="matrix(20, 0, 0, 20, -127, -47)"/>
<path fill="none" stroke-width="0.4" stroke-linecap="butt" stroke-linejoin="miter" stroke="rgb(100%, 100%, 100%)" stroke-opacity="1" stroke-miterlimit="10" d="M 8.7 3.2 L 8.3 3.2 " transform="matrix(20, 0, 0, 20, -127, -47)"/>
</svg>
