<?xml version="1.0" encoding="UTF-8"?>
<svg xmlns="http://www.w3.org/2000/svg" xmlns:xlink="http://www.w3.org/1999/xlink" width="44" height="48" viewBox="0 0 44 48">
<path fill="none" stroke-width="0.4" stroke-linecap="butt" stroke-linejoin="miter" stroke="rgb(100%, 100%, 100%)" stroke-opacity="1" stroke-miterlimit="10" d="M 7.2 3 L 7.2 5 " transform="matrix(20, 0, 0, 20, -136, -56)"/>
<path fill="none" stroke-width="0.4" stroke-linecap="butt" stroke-linejoin="miter" stroke="rgb(100%, 100%, 100%)" stroke-opacity="1" stroke-miterlimit="10" d="M 8.8 3 L 8.8 5 " transform="matrix(20, 0, 0, 20, -136, -56)"/>
<path fill="none" stroke-width="0.4" stroke-linecap="butt" stroke-linejoin="miter" stroke="rgb(100%, 100%, 100%)" stroke-opacity="1" stroke-miterlimit="10" d="M 8.2 3.2 L 7 3.2 " transform="matrix(20, 0, 0, 20, -136, -56)"/>
<path fill="none" stroke-width="0.4" stroke-linecap="butt" stroke-linejoin="miter" stroke="rgb(100%, 100%, 100%)" stroke-opacity="1" stroke-miterlimit="10" d="M 8.2 4 L 7.2 4 " transform="matrix(20, 0, 0, 20, -136, -56)"/>
<path fill="none" stroke-width="0.4" stroke-linecap="butt" stroke-linejoin="miter" stroke="rgb(100%, 100%, 100%)" stroke-opacity="1" stroke-miterlimit="10" d="M 8.8 4.8 L 8 4.8 " transform="matrix(20, 0, 0, 20, -136, -56)"/>
<path fill="none" stroke-width="0.4" stroke-linecap="butt" stroke-linejoin="miter" stroke="rgb(100%, 100%, 100%)" stroke-opacity="1" stroke-miterlimit="10" d="M 8.7 3.2 L 8.3 3.2 " transform="matrix(20, 0, 0, 20, -136, -56)"/>
</svg>
